<svg width="62" height="56" viewBox="0 0 62 56" fill="none" xmlns="http://www.w3.org/2000/svg">
<path d="M34.5612 18.3617L34.8812 19.6411L36.0268 18.9877L49.5522 11.2733L41.12 23.3342L40.2473 24.5825L41.7397 24.887L56.9977 28L41.7397 31.113L40.2473 31.4175L41.12 32.6658L49.5522 44.7267L36.0268 37.0123L34.8812 36.3589L34.5612 37.6383L31 51.8782L27.4388 37.6383L27.1188 36.3589L25.9732 37.0123L12.4478 44.7267L20.88 32.6658L21.7527 31.4175L20.2603 31.113L5.00233 28L20.2603 24.887L21.7527 24.5825L20.88 23.3342L12.4478 11.2733L25.9732 18.9877L27.1188 19.6411L27.4388 18.3617L31 4.12177L34.5612 18.3617Z" fill="#D9D9D9" stroke="black" stroke-width="2"/>
</svg>
